<svg id="visual" viewBox="0 0 960 540" width="960" height="540" xmlns="http://www.w3.org/2000/svg" xmlns:xlink="http://www.w3.org/1999/xlink" version="1.1"><rect x="0" y="0" width="960" height="540" fill="#001220"></rect><path d="M0 203L20 216.5C40 230 80 257 120 270.8C160 284.7 200 285.3 240 287.2C280 289 320 292 360 269.2C400 246.3 440 197.7 480 175.3C520 153 560 157 600 177.8C640 198.7 680 236.3 720 238C760 239.7 800 205.3 840 204.8C880 204.3 920 237.7 940 254.3L960 271L960 541L940 541C920 541 880 541 840 541C800 541 760 541 720 541C680 541 640 541 600 541C560 541 520 541 480 541C440 541 400 541 360 541C320 541 280 541 240 541C200 541 160 541 120 541C80 541 40 541 20 541L0 541Z" fill="#fa69c1"></path><path d="M0 245L20 259.5C40 274 80 303 120 309.2C160 315.3 200 298.7 240 295C280 291.3 320 300.7 360 297.8C400 295 440 280 480 270.8C520 261.7 560 258.3 600 248.3C640 238.3 680 221.7 720 234C760 246.3 800 287.7 840 298.7C880 309.7 920 290.3 940 280.7L960 271L960 541L940 541C920 541 880 541 840 541C800 541 760 541 720 541C680 541 640 541 600 541C560 541 520 541 480 541C440 541 400 541 360 541C320 541 280 541 240 541C200 541 160 541 120 541C80 541 40 541 20 541L0 541Z" fill="#ff5ea6"></path><path d="M0 299L20 299.5C40 300 80 301 120 302.2C160 303.3 200 304.7 240 315.5C280 326.3 320 346.7 360 362C400 377.3 440 387.7 480 388.5C520 389.3 560 380.7 600 360.3C640 340 680 308 720 293.5C760 279 800 282 840 291.3C880 300.7 920 316.3 940 324.2L960 332L960 541L940 541C920 541 880 541 840 541C800 541 760 541 720 541C680 541 640 541 600 541C560 541 520 541 480 541C440 541 400 541 360 541C320 541 280 541 240 541C200 541 160 541 120 541C80 541 40 541 20 541L0 541Z" fill="#ff578b"></path><path d="M0 438L20 433.7C40 429.3 80 420.7 120 405.7C160 390.7 200 369.3 240 361.8C280 354.3 320 360.7 360 363C400 365.3 440 363.7 480 360.2C520 356.7 560 351.3 600 360.3C640 369.3 680 392.7 720 400.5C760 408.3 800 400.7 840 394.5C880 388.3 920 383.7 940 381.3L960 379L960 541L940 541C920 541 880 541 840 541C800 541 760 541 720 541C680 541 640 541 600 541C560 541 520 541 480 541C440 541 400 541 360 541C320 541 280 541 240 541C200 541 160 541 120 541C80 541 40 541 20 541L0 541Z" fill="#fb5470"></path><path d="M0 506L20 503.5C40 501 80 496 120 491.5C160 487 200 483 240 477.2C280 471.3 320 463.7 360 454.5C400 445.3 440 434.7 480 433.2C520 431.7 560 439.3 600 452.7C640 466 680 485 720 491.3C760 497.7 800 491.3 840 477.7C880 464 920 443 940 432.5L960 422L960 541L940 541C920 541 880 541 840 541C800 541 760 541 720 541C680 541 640 541 600 541C560 541 520 541 480 541C440 541 400 541 360 541C320 541 280 541 240 541C200 541 160 541 120 541C80 541 40 541 20 541L0 541Z" fill="#f35656"></path></svg>