<svg id="visual" viewBox="0 0 960 540" width="960" height="540" xmlns="http://www.w3.org/2000/svg" xmlns:xlink="http://www.w3.org/1999/xlink" version="1.1"><rect x="0" y="0" width="960" height="540" fill="#001220"></rect><path d="M0 239L17.8 237.8C35.7 236.7 71.3 234.3 106.8 235.7C142.3 237 177.7 242 213.2 244.5C248.7 247 284.3 247 320 234.8C355.7 222.7 391.3 198.3 426.8 207.5C462.3 216.7 497.7 259.3 533.2 282.7C568.7 306 604.3 310 640 290.5C675.7 271 711.3 228 746.8 208C782.3 188 817.7 191 853.2 200.7C888.7 210.3 924.3 226.7 942.2 234.8L960 243L960 541L942.2 541C924.3 541 888.7 541 853.2 541C817.7 541 782.3 541 746.8 541C711.3 541 675.7 541 640 541C604.3 541 568.7 541 533.2 541C497.7 541 462.3 541 426.8 541C391.3 541 355.7 541 320 541C284.3 541 248.7 541 213.2 541C177.7 541 142.3 541 106.8 541C71.3 541 35.7 541 17.8 541L0 541Z" fill="#715df2"></path><path d="M0 273L17.8 268.8C35.7 264.7 71.3 256.3 106.8 275C142.3 293.7 177.7 339.3 213.2 363.8C248.7 388.3 284.3 391.7 320 377.5C355.7 363.3 391.3 331.7 426.8 317.7C462.3 303.7 497.7 307.3 533.2 325.8C568.7 344.3 604.3 377.7 640 379.2C675.7 380.7 711.3 350.3 746.8 325.8C782.3 301.3 817.7 282.7 853.2 280.2C888.7 277.7 924.3 291.3 942.2 298.2L960 305L960 541L942.2 541C924.3 541 888.7 541 853.2 541C817.7 541 782.3 541 746.8 541C711.3 541 675.7 541 640 541C604.3 541 568.7 541 533.2 541C497.7 541 462.3 541 426.8 541C391.3 541 355.7 541 320 541C284.3 541 248.7 541 213.2 541C177.7 541 142.3 541 106.8 541C71.3 541 35.7 541 17.8 541L0 541Z" fill="#ae3fc3"></path><path d="M0 358L17.8 362.5C35.7 367 71.3 376 106.8 385.2C142.3 394.3 177.7 403.7 213.2 402.5C248.7 401.3 284.3 389.7 320 382.8C355.7 376 391.3 374 426.8 369.7C462.3 365.3 497.7 358.7 533.2 365.3C568.7 372 604.3 392 640 401.2C675.7 410.3 711.3 408.7 746.8 412.7C782.3 416.7 817.7 426.3 853.2 422.7C888.7 419 924.3 402 942.2 393.5L960 385L960 541L942.2 541C924.3 541 888.7 541 853.2 541C817.7 541 782.3 541 746.8 541C711.3 541 675.7 541 640 541C604.3 541 568.7 541 533.2 541C497.7 541 462.3 541 426.8 541C391.3 541 355.7 541 320 541C284.3 541 248.7 541 213.2 541C177.7 541 142.3 541 106.8 541C71.3 541 35.7 541 17.8 541L0 541Z" fill="#c52693"></path><path d="M0 446L17.8 439.7C35.7 433.3 71.3 420.7 106.8 419.3C142.3 418 177.7 428 213.2 438.2C248.7 448.3 284.3 458.7 320 464.7C355.7 470.7 391.3 472.3 426.8 474.7C462.3 477 497.7 480 533.2 474.8C568.7 469.7 604.3 456.3 640 450.3C675.7 444.3 711.3 445.7 746.8 450.2C782.3 454.7 817.7 462.3 853.2 467.7C888.7 473 924.3 476 942.2 477.5L960 479L960 541L942.2 541C924.3 541 888.7 541 853.2 541C817.7 541 782.3 541 746.8 541C711.3 541 675.7 541 640 541C604.3 541 568.7 541 533.2 541C497.7 541 462.3 541 426.8 541C391.3 541 355.7 541 320 541C284.3 541 248.7 541 213.2 541C177.7 541 142.3 541 106.8 541C71.3 541 35.7 541 17.8 541L0 541Z" fill="#c62368"></path></svg>