<svg id="visual" viewBox="0 0 960 540" width="960" height="540" xmlns="http://www.w3.org/2000/svg" xmlns:xlink="http://www.w3.org/1999/xlink" version="1.1"><rect x="0" y="0" width="960" height="540" fill="#0083ff"></rect><defs><linearGradient id="grad1_0" x1="43.8%" y1="0%" x2="100%" y2="100%"><stop offset="14.444444444444446%" stop-color="#030068" stop-opacity="1"></stop><stop offset="85.55555555555554%" stop-color="#030068" stop-opacity="1"></stop></linearGradient></defs><defs><linearGradient id="grad1_1" x1="43.8%" y1="0%" x2="100%" y2="100%"><stop offset="14.444444444444446%" stop-color="#030068" stop-opacity="1"></stop><stop offset="85.55555555555554%" stop-color="#0f2d99" stop-opacity="1"></stop></linearGradient></defs><defs><linearGradient id="grad1_2" x1="43.8%" y1="0%" x2="100%" y2="100%"><stop offset="14.444444444444446%" stop-color="#1057cc" stop-opacity="1"></stop><stop offset="85.55555555555554%" stop-color="#0f2d99" stop-opacity="1"></stop></linearGradient></defs><defs><linearGradient id="grad1_3" x1="43.8%" y1="0%" x2="100%" y2="100%"><stop offset="14.444444444444446%" stop-color="#1057cc" stop-opacity="1"></stop><stop offset="85.55555555555554%" stop-color="#0083ff" stop-opacity="1"></stop></linearGradient></defs><defs><linearGradient id="grad2_0" x1="0%" y1="0%" x2="56.3%" y2="100%"><stop offset="14.444444444444446%" stop-color="#030068" stop-opacity="1"></stop><stop offset="85.55555555555554%" stop-color="#030068" stop-opacity="1"></stop></linearGradient></defs><defs><linearGradient id="grad2_1" x1="0%" y1="0%" x2="56.3%" y2="100%"><stop offset="14.444444444444446%" stop-color="#0f2d99" stop-opacity="1"></stop><stop offset="85.55555555555554%" stop-color="#030068" stop-opacity="1"></stop></linearGradient></defs><defs><linearGradient id="grad2_2" x1="0%" y1="0%" x2="56.3%" y2="100%"><stop offset="14.444444444444446%" stop-color="#0f2d99" stop-opacity="1"></stop><stop offset="85.55555555555554%" stop-color="#1057cc" stop-opacity="1"></stop></linearGradient></defs><defs><linearGradient id="grad2_3" x1="0%" y1="0%" x2="56.3%" y2="100%"><stop offset="14.444444444444446%" stop-color="#0083ff" stop-opacity="1"></stop><stop offset="85.55555555555554%" stop-color="#1057cc" stop-opacity="1"></stop></linearGradient></defs><g transform="translate(960, 0)"><path d="M0 513C-67.5 492.8 -135 472.6 -179.5 433.3C-224 394 -245.4 335.6 -297.7 297.7C-349.9 259.8 -432.9 242.5 -474 196.3C-515 150.1 -514 75.1 -513 0L0 0Z" fill="#0b6de5"></path><path d="M0 384.8C-50.6 369.6 -101.2 354.5 -134.6 325C-168 295.5 -184.1 251.7 -223.3 223.3C-262.5 194.9 -324.7 181.9 -355.5 147.2C-386.2 112.6 -385.5 56.3 -384.7 0L0 0Z" fill="#1142b3"></path><path d="M0 256.5C-33.7 246.4 -67.5 236.3 -89.7 216.6C-112 197 -122.7 167.8 -148.8 148.8C-175 129.9 -216.5 121.3 -237 98.2C-257.5 75.1 -257 37.5 -256.5 0L0 0Z" fill="#0a1880"></path><path d="M0 128.3C-16.9 123.2 -33.7 118.2 -44.9 108.3C-56 98.5 -61.4 83.9 -74.4 74.4C-87.5 65 -108.2 60.6 -118.5 49.1C-128.7 37.5 -128.5 18.8 -128.2 0L0 0Z" fill="#030068"></path></g><g transform="translate(0, 540)"><path d="M0 -513C49.6 -458.9 99.1 -404.8 158.4 -382.5C217.8 -360.1 286.9 -369.5 344.4 -344.4C401.9 -319.2 447.8 -259.5 474 -196.3C500.1 -133.2 506.6 -66.6 513 0L0 0Z" fill="#0b6de5"></path><path d="M0 -384.7C37.2 -344.2 74.3 -303.6 118.8 -286.9C163.3 -270.1 215.1 -277.1 258.3 -258.3C301.4 -239.4 335.8 -194.6 355.5 -147.2C375.1 -99.9 379.9 -49.9 384.8 0L0 0Z" fill="#1142b3"></path><path d="M0 -256.5C24.8 -229.5 49.6 -202.4 79.2 -191.2C108.9 -180.1 143.4 -184.8 172.2 -172.2C200.9 -159.6 223.9 -129.7 237 -98.2C250.1 -66.6 253.3 -33.3 256.5 0L0 0Z" fill="#0a1880"></path><path d="M0 -128.2C12.4 -114.7 24.8 -101.2 39.6 -95.6C54.4 -90 71.7 -92.4 86.1 -86.1C100.5 -79.8 111.9 -64.9 118.5 -49.1C125 -33.3 126.6 -16.6 128.3 0L0 0Z" fill="#030068"></path></g></svg>