<svg id="visual" viewBox="0 0 960 540" width="960" height="540" xmlns="http://www.w3.org/2000/svg" xmlns:xlink="http://www.w3.org/1999/xlink" version="1.1"><rect x="0" y="0" width="960" height="540" fill="#00050e"></rect><path d="M0 111L22.8 123.2C45.7 135.3 91.3 159.7 137 153.8C182.7 148 228.3 112 274 115.7C319.7 119.3 365.3 162.7 411.2 161.7C457 160.7 503 115.3 548.8 106.5C594.7 97.7 640.3 125.3 686 129.2C731.7 133 777.3 113 823 106.5C868.7 100 914.3 107 937.2 110.5L960 114L960 541L937.2 541C914.3 541 868.7 541 823 541C777.3 541 731.7 541 686 541C640.3 541 594.7 541 548.8 541C503 541 457 541 411.2 541C365.3 541 319.7 541 274 541C228.3 541 182.7 541 137 541C91.3 541 45.7 541 22.8 541L0 541Z" fill="#c72462"></path><path d="M0 165L22.8 188.8C45.7 212.7 91.3 260.3 137 268C182.7 275.7 228.3 243.3 274 222.8C319.7 202.3 365.3 193.7 411.2 195.5C457 197.3 503 209.7 548.8 225C594.7 240.3 640.3 258.7 686 265.8C731.7 273 777.3 269 823 247.5C868.7 226 914.3 187 937.2 167.5L960 148L960 541L937.2 541C914.3 541 868.7 541 823 541C777.3 541 731.7 541 686 541C640.3 541 594.7 541 548.8 541C503 541 457 541 411.2 541C365.3 541 319.7 541 274 541C228.3 541 182.7 541 137 541C91.3 541 45.7 541 22.8 541L0 541Z" fill="#d62c83"></path><path d="M0 268L22.8 276.8C45.7 285.7 91.3 303.3 137 297.3C182.7 291.3 228.3 261.7 274 253C319.7 244.3 365.3 256.7 411.2 277.5C457 298.3 503 327.7 548.8 331.8C594.7 336 640.3 315 686 308.8C731.7 302.7 777.3 311.3 823 324.8C868.7 338.3 914.3 356.7 937.2 365.8L960 375L960 541L937.2 541C914.3 541 868.7 541 823 541C777.3 541 731.7 541 686 541C640.3 541 594.7 541 548.8 541C503 541 457 541 411.2 541C365.3 541 319.7 541 274 541C228.3 541 182.7 541 137 541C91.3 541 45.7 541 22.8 541L0 541Z" fill="#e03ca8"></path><path d="M0 346L22.8 355.5C45.7 365 91.3 384 137 383.8C182.7 383.7 228.3 364.3 274 366C319.7 367.7 365.3 390.3 411.2 389.5C457 388.7 503 364.3 548.8 351.3C594.7 338.3 640.3 336.7 686 337.5C731.7 338.3 777.3 341.7 823 358.3C868.7 375 914.3 405 937.2 420L960 435L960 541L937.2 541C914.3 541 868.7 541 823 541C777.3 541 731.7 541 686 541C640.3 541 594.7 541 548.8 541C503 541 457 541 411.2 541C365.3 541 319.7 541 274 541C228.3 541 182.7 541 137 541C91.3 541 45.7 541 22.8 541L0 541Z" fill="#e251d0"></path><path d="M0 434L22.8 429.7C45.7 425.3 91.3 416.7 137 416C182.7 415.3 228.3 422.7 274 420.2C319.7 417.7 365.3 405.3 411.2 401.2C457 397 503 401 548.8 403.7C594.7 406.3 640.3 407.7 686 410.5C731.7 413.3 777.3 417.7 823 425.7C868.7 433.7 914.3 445.3 937.2 451.2L960 457L960 541L937.2 541C914.3 541 868.7 541 823 541C777.3 541 731.7 541 686 541C640.3 541 594.7 541 548.8 541C503 541 457 541 411.2 541C365.3 541 319.7 541 274 541C228.3 541 182.7 541 137 541C91.3 541 45.7 541 22.8 541L0 541Z" fill="#da69fa"></path></svg>